<?xml version="1.0" encoding="utf-8"?>
<!-- Svg Vector Icons : http://www.onlinewebfonts.com/icon -->
<!DOCTYPE svg PUBLIC "-//W3C//DTD SVG 1.1//EN" "http://www.w3.org/Graphics/SVG/1.1/DTD/svg11.dtd">
<svg version="1.1" xmlns="http://www.w3.org/2000/svg" xmlns:xlink="http://www.w3.org/1999/xlink" x="0px" y="0px" viewBox="0 0 1000 1000" enable-background="new 0 0 1000 1000" xml:space="preserve">
<metadata> Svg Vector Icons : http://www.onlinewebfonts.com/icon </metadata>
<g><path d="M745.7,857.3c-4-145.7-93.4-270.1-220.1-325.4c60.2-44.6,99.3-115.8,99.3-196.3c0-135.2-110.1-244.9-245.9-244.9c-135.8,0-245.9,109.6-245.9,244.9c0,80.3,39,151.4,99,196C106,586.4,16.6,709.6,11.5,854.4c-0.9,3.4-1.5,6.8-1.5,10.5l0.4,3.8c0,22.4,18.2,40.6,40.8,40.6c22.5,0,40.8-18.2,40.8-40.6l-0.1-0.5h0.8c0,0,0-0.1,0-0.1c0-157.6,128.2-285.3,286.4-285.3c156.2,0,283,124.6,286.1,279.4c-0.1,0.9-0.3,1.8-0.3,2.7l0.4,3.8c0,22.4,18.3,40.6,40.8,40.6c22.5,0,40.8-18.2,40.8-40.6l-0.4-3.8C746.5,862.3,746.2,859.7,745.7,857.3z M378.4,497.9c-90.3,0-163.5-72.9-163.5-162.9c0-90,73.2-162.9,163.5-162.9c90.3,0,163.5,72.9,163.5,162.9C541.9,425,468.7,497.9,378.4,497.9z"/><path d="M989.6,859.5c0-2.2-0.3-4.3-0.6-6.4c-3.4-142.2-88.2-263.8-209.7-321.3c54.8-45,90.3-115.5,90.3-191.7c0-135.2-110.1-244.9-245.9-244.9c-14.3,0-22.3,3-29.8,16c-5.5,9.6-7.2,22.7-2.5,32.9c4.1,9,12.5,15.8,21.7,19c9.4,3.3,22.4,2.1,32.3,3.6c10.3,1.5,20.4,3.6,30.4,6.6c18.3,5.6,35.2,14.8,49.9,27.2c25.7,21.7,45.1,51.8,53.6,84.4c4.5,17.4,7.3,36.6,7.3,54.6c0,64.5-37.8,120.1-92.4,146.5c-15.4,9.5-25.6,26.2-25.6,45.2l0.5,5c0,29.7,24.7,53.7,55.2,53.7c4.3,0,8.4-0.6,12.3-1.5c94.2,45.5,169.1,156.7,171.8,267.8c-0.1,1.1-0.3,2.1-0.3,3.2l0.4,3.8c0,22.4,18.2,40.6,40.8,40.6c22.5,0,40.8-18.2,40.8-40.6L989.6,859.5z"/></g>
</svg>