<?xml version="1.0" encoding="utf-8"?>
<!-- Svg Vector Icons : http://www.onlinewebfonts.com/icon -->
<!DOCTYPE svg PUBLIC "-//W3C//DTD SVG 1.1//EN" "http://www.w3.org/Graphics/SVG/1.1/DTD/svg11.dtd">
<svg version="1.1" xmlns="http://www.w3.org/2000/svg" xmlns:xlink="http://www.w3.org/1999/xlink" x="0px" y="0px" viewBox="0 0 1000 1000" enable-background="new 0 0 1000 1000" xml:space="preserve">
<metadata> Svg Vector Icons : http://www.onlinewebfonts.com/icon </metadata>
<g><g><g><path d="M834.6,812.2V413.9L488.3,253.7L140.7,422.6v389.6c0,47.8,19.7,86.6,43.9,86.6h43.9V634.5c0-9.5,7.7-17.1,17.1-17.1h151.9c9.5,0,17.1,7.7,17.1,17.1v264.3h333.4C795.9,898.8,834.6,860,834.6,812.2z M624.7,786.1c0,9.5-7.7,17.1-17.1,17.1h-47.2c-9.4,0-17.1-7.7-17.1-17.1v-47.2c0-9.4,7.7-17.1,17.1-17.1h47.2c9.4,0,17.1,7.7,17.1,17.1V786.1z M624.7,683.4c0,9.5-7.7,17.1-17.1,17.1h-47.2c-9.4,0-17.1-7.7-17.1-17.1v-47.2c0-9.4,7.7-17.1,17.1-17.1h47.2c9.4,0,17.1,7.7,17.1,17.1V683.4z M727.8,786.1c0,9.5-7.7,17.1-17.1,17.1h-47.2c-9.5,0-17.1-7.7-17.1-17.1v-47.2c0-9.4,7.7-17.1,17.1-17.1h47.2c9.4,0,17.1,7.7,17.1,17.1V786.1z M727.8,683.4c0,9.5-7.7,17.1-17.1,17.1h-47.2c-9.5,0-17.1-7.7-17.1-17.1v-47.2c0-9.4,7.7-17.1,17.1-17.1h47.2c9.4,0,17.1,7.7,17.1,17.1V683.4z"/><path d="M960.6,317.6l-126-59.6v-44c0-32.8-23-59.3-51.4-59.3c-27,0-49,24.2-51,54.9L513.8,106.1c-14.2-6.7-30.6-6.6-44.6,0.4L38.7,318c-25.5,12.5-36,43.3-23.5,68.7c12.5,25.4,43.3,35.9,68.7,23.4l408.3-200.6l424.4,200.9c7.1,3.4,14.6,4.9,22,4.9c19.2,0,37.7-10.8,46.4-29.4C997.2,360.4,986.2,329.8,960.6,317.6z"/></g></g><g></g><g></g><g></g><g></g><g></g><g></g><g></g><g></g><g></g><g></g><g></g><g></g><g></g><g></g><g></g></g>
</svg>