<?xml version="1.0" encoding="utf-8"?>
<!-- Svg Vector Icons : http://www.onlinewebfonts.com/icon -->
<!DOCTYPE svg PUBLIC "-//W3C//DTD SVG 1.1//EN" "http://www.w3.org/Graphics/SVG/1.1/DTD/svg11.dtd">
<svg version="1.1" xmlns="http://www.w3.org/2000/svg" xmlns:xlink="http://www.w3.org/1999/xlink" x="0px" y="0px" viewBox="0 0 1000 1000" enable-background="new 0 0 1000 1000" xml:space="preserve">
<metadata> Svg Vector Icons : http://www.onlinewebfonts.com/icon </metadata>
<g><path d="M666.6,167.5c-16.4-6.9-35.7,0.7-42.8,17.4c-7,16.6,0.8,35.8,17.4,42.8C775.8,284.6,862.7,415.8,862.7,562c0,200-162.7,362.8-362.8,362.8c-200,0-362.8-162.7-362.8-362.8c0-142.3,83.9-272.1,213.6-330.7c16.5-7.6,23.8-26.9,16.4-43.3c-7.4-16.4-26.7-23.8-43.2-16.3c-153.1,69.2-252,222.4-252,390.3C71.9,798,264,990,500,990c236.1,0,428.1-192,428.1-428.1C928.1,389.4,825.5,234.6,666.6,167.5z"/><path d="M500,568.1c18.1,0,32.7-14.6,32.7-32.7V42.7c0-18.1-14.6-32.7-32.7-32.7c-18.1,0-32.7,14.7-32.7,32.8v492.8C467.3,553.5,481.9,568.1,500,568.1z"/></g>
</svg>