<?xml version="1.0" encoding="utf-8"?>
<!-- Svg Vector Icons : http://www.onlinewebfonts.com/icon -->
<!DOCTYPE svg PUBLIC "-//W3C//DTD SVG 1.1//EN" "http://www.w3.org/Graphics/SVG/1.1/DTD/svg11.dtd">
<svg version="1.1" xmlns="http://www.w3.org/2000/svg" xmlns:xlink="http://www.w3.org/1999/xlink" x="0px" y="0px" viewBox="0 0 1000 1000" enable-background="new 0 0 1000 1000" xml:space="preserve">
<metadata> Svg Vector Icons : http://www.onlinewebfonts.com/icon </metadata>
<g><g transform="translate(0.000000,512.000000) scale(0.100000,-0.100000)"><path d="M3381.4,5000.5c-926.6-95.7-1816.9-570.5-2418-1290.4C-581.6,1866.5,19.6-919.1,2186.8-1966.3c1822.6-878.8,4014.7-107.2,4897.3,1723c727.5,1508.6,336.9,3325.5-945.8,4399.5C5370.6,4799.5,4377,5103.9,3381.4,5000.5z M4099.4,4083.5c465.2-57.4,940-247,1311.4-520.7c172.3-128.3,451.8-407.8,580.1-580.1c614.6-830.9,708.4-1956.6,241.2-2875.6c-381-752.4-1079.8-1286.5-1908.8-1460.8c-740.9-157-1568,26.8-2188.3,484.4c-170.4,124.4-451.8,405.9-576.3,576.3c-605,817.5-708.4,1893.4-271.9,2823.9c239.3,511.2,725.6,1014.7,1225.3,1267.4C3004.3,4045.2,3572.9,4148.6,4099.4,4083.5z"/><path d="M3429.3,3461.3c-672-107.2-1263.6-545.6-1577.5-1171.7c-124.4-250.8-222.1-629.9-222.1-871.1v-72.7h304.4h302.5l11.5,130.2c24.9,254.6,107.2,492,243.1,698.8c260.4,400.1,677.7,650.9,1154.4,696.9l128.3,11.5v302.5V3490l-90-1.9C3632.2,3486.2,3519.3,3474.7,3429.3,3461.3z"/><path d="M7210.4-1204.3c-222.1-302.5-583.9-664.3-886.4-886.4L6090.4-2263l1171.7-1171.7c1246.3-1248.3,1252.1-1252.1,1499-1317.2c656.7-170.4,1280.8,453.7,1110.4,1110.4c-65.1,247-68.9,252.7-1317.2,1499L7382.7-970.8L7210.4-1204.3z"/></g></g>
</svg>