<?xml version="1.0" encoding="utf-8"?>
<!-- Generator: Adobe Illustrator 19.1.1, SVG Export Plug-In . SVG Version: 6.00 Build 0)  -->
<svg version="1.1" id="Layer_1" xmlns="http://www.w3.org/2000/svg" xmlns:xlink="http://www.w3.org/1999/xlink" x="0px" y="0px"
	 viewBox="0 0 1200 1200" enable-background="new 0 0 1200 1200" xml:space="preserve">
<g>
	<g>
		<polygon fill="#FDE9A4" points="431.542,1054.503 783.551,595.07 1135.56,135.637 807.586,434.483 479.612,733.329 
			455.577,893.916 		"/>
		<polygon opacity="0.54" fill="#2E4C59" points="431.542,1054.503 783.551,595.07 1135.56,135.637 807.586,434.483 
			479.612,733.329 455.577,893.916 		"/>
		<path fill="#2E4C59" d="M431.538,1068.943c-0.946,0-1.898-0.093-2.841-0.283c-0.943-0.19-1.878-0.476-2.791-0.862
			c-3.032-1.286-5.436-3.516-6.961-6.238c-1.525-2.722-2.17-5.937-1.683-9.195l24.034-160.588L465.33,731.19
			c0.247-1.641,0.772-3.216,1.543-4.66c0.771-1.444,1.787-2.757,3.015-3.874L797.861,423.81l327.974-298.845
			c2.764-2.521,6.26-3.775,9.754-3.767c3.494,0.008,6.984,1.277,9.737,3.801c2.754,2.53,4.315,5.901,4.619,9.382
			c0.304,3.481-0.649,7.071-2.924,10.038L795.013,603.852l-352.008,459.433c-1.399,1.825-3.168,3.239-5.136,4.197
			C435.9,1068.441,433.733,1068.943,431.538,1068.943z M493.132,740.542l-19.513,130.386l-19.513,130.386l285.806-373.026
			l285.806-373.026l-266.292,242.64L493.132,740.542z"/>
	</g>
	<g>
		<polygon fill="#FDE9A4" points="879.327,1064.36 1007.444,599.998 1135.56,135.637 600,334.429 64.439,533.221 215.02,628.413 
			365.601,723.605 750.581,429.621 1135.56,135.637 826.947,462.784 518.335,789.931 698.831,927.146 		"/>
		<path fill="#2E4C59" d="M879.329,1078.802c-1.557,0-3.104-0.252-4.581-0.747s-2.884-1.23-4.159-2.198L690.091,938.642
			L509.594,801.425c-1.63-1.241-2.958-2.798-3.922-4.555c-0.963-1.757-1.561-3.714-1.73-5.756c-0.168-2.039,0.102-4.067,0.764-5.958
			c0.663-1.891,1.719-3.645,3.125-5.137L755.555,517.42l247.724-262.599l-314.458,240.13l-314.458,240.13
			c-2.399,1.836-5.242,2.825-8.124,2.951c-2.882,0.126-5.802-0.61-8.355-2.223l-150.58-95.192l-150.58-95.192
			c-2.32-1.467-4.124-3.528-5.277-5.906c-1.153-2.377-1.654-5.071-1.368-7.801c0.285-2.73,1.332-5.261,2.951-7.349
			c1.619-2.088,3.811-3.732,6.384-4.688l535.427-198.743l535.427-198.743c0.869-0.338,1.725-0.582,2.61-0.745
			c0.886-0.162,1.802-0.243,2.79-0.254c0.006,0,0.012,0,0.012,0c0.011,0,0.016,0,0.016,0c0.011,0,0.021,0,0.029,0
			c0.008,0,0.013,0,0.013,0c0.255,0.003,0.51,0.013,0.763,0.03c0.254,0.017,0.506,0.041,0.757,0.072c0.006,0,0.015,0,0.023,0.001
			c0.008,0.001,0.015,0.002,0.015,0.002c1.634,0.2,3.235,0.675,4.727,1.421s2.875,1.763,4.074,3.043
			c0.003,0.003,0.006,0.006,0.006,0.006c0.006,0.006,0.009,0.008,0.009,0.008l0.005,0.006l0.004,0.003
			c0.103,0.11,0.204,0.221,0.302,0.334s0.195,0.227,0.29,0.343c0.001,0.003,0.004,0.003,0.007,0.005c0,0,0.007,0.006,0.01,0.018
			c0.973,1.185,1.728,2.486,2.266,3.852s0.859,2.798,0.963,4.242c0.032,0.426,0.045,0.855,0.038,1.284s-0.033,0.859-0.078,1.288
			v0.005v0.001c-0.001,0.003-0.002,0.006-0.002,0.006c-0.001,0.006-0.001,0.008-0.001,0.008c-0.045,0.429-0.11,0.855-0.194,1.278
			c-0.084,0.424-0.187,0.845-0.308,1.263L1021.332,603.96l-128.083,464.244c-0.637,2.31-1.827,4.385-3.424,6.076
			c-1.598,1.69-3.604,2.994-5.874,3.761c-0.754,0.257-1.522,0.447-2.295,0.573C880.883,1078.74,880.104,1078.802,879.329,1078.802z
			 M539.858,788.153L705.47,914.055l165.612,125.902L988.633,613.89l117.551-426.067L823.021,487.988L539.858,788.153z
			 M96.816,536.604l134.003,84.712l134.003,84.712L707.42,444.41l342.598-261.618L573.417,359.698L96.816,536.604z"/>
	</g>
	<g opacity="0.17">
		<path fill="#5D5D5D" d="M933.906,885.288c-20.295-14.538-40.621-29.057-60.969-43.571c-20.348-14.514-40.719-29.022-61.102-43.541
			c-29.749-21.186-60.005-42.732-90.376-64.432c-30.371-21.7-60.857-43.552-91.068-65.35c-2.936-2.118-6.432-2.984-9.814-2.662
			c-3.383,0.322-6.653,1.83-9.138,4.462l-51.804,54.913l-51.804,54.913c-1.406,1.492-2.462,3.246-3.125,5.137
			c-0.663,1.891-0.932,3.919-0.764,5.958c0.169,2.042,0.767,3.999,1.73,5.756c0.963,1.757,2.291,3.314,3.922,4.555l180.497,137.216
			l180.497,137.216c1.275,0.967,2.681,1.703,4.159,2.198s3.025,0.747,4.581,0.747c0.776,0,1.554-0.062,2.327-0.188
			c0.773-0.126,1.541-0.317,2.295-0.573c2.27-0.767,4.276-2.072,5.874-3.761c1.598-1.69,2.787-3.766,3.424-6.076l23.084-83.668
			l23.084-83.668c0.804-2.919,0.656-5.932-0.308-8.657S936.365,887.051,933.906,885.288z"/>
		<path fill="#5D5D5D" d="M534.322,605.66c-0.021-2.273-0.577-4.476-1.585-6.446s-2.469-3.709-4.301-5.055
			c-39.644-29.153-76.936-56.97-112.374-83.831s-69.022-52.763-101.252-78.086c-1.976-1.554-4.283-2.535-6.685-2.91
			s-4.902-0.144-7.261,0.728l-120.725,44.811L59.414,519.682c-2.573,0.956-4.765,2.6-6.384,4.688
			c-1.619,2.088-2.666,4.619-2.951,7.349c-0.286,2.73,0.215,5.423,1.368,7.801c1.153,2.378,2.957,4.439,5.277,5.906l150.58,95.192
			l150.58,95.192c1.182,0.747,2.442,1.306,3.741,1.677c1.299,0.372,2.637,0.556,3.972,0.556c1.55,0,3.097-0.248,4.579-0.742
			c1.482-0.494,2.899-1.235,4.186-2.219l77.141-58.907l77.141-58.907c1.808-1.382,3.237-3.147,4.209-5.136
			C533.826,610.144,534.341,607.933,534.322,605.66z"/>
	</g>
	<g>
		<polygon fill="#FDE9A4" points="365.601,723.605 398.572,889.054 431.542,1054.503 474.939,922.217 518.335,789.931 
			826.947,462.784 1135.56,135.637 750.581,429.621 		"/>
		<polygon opacity="0.5" fill="#2E4C59" points="365.601,723.605 398.572,889.054 431.542,1054.503 474.939,922.217 
			518.335,789.931 826.947,462.784 1135.56,135.637 750.581,429.621 		"/>
		<path fill="#2E4C59" d="M431.549,1068.943c-0.145,0-0.29-0.003-0.436-0.008c-0.146-0.005-0.292-0.012-0.438-0.02
			c-3.274-0.197-6.277-1.486-8.622-3.53c-2.344-2.044-4.03-4.843-4.67-8.061l-32.972-165.45l-32.972-165.45
			c-0.539-2.702-0.285-5.44,0.651-7.921c0.936-2.481,2.555-4.705,4.746-6.377l384.98-293.983l384.98-293.983
			c2.988-2.282,6.602-3.224,10.099-2.898c3.496,0.326,6.875,1.919,9.392,4.708c2.517,2.795,3.751,6.322,3.71,9.834
			s-1.355,7.009-3.936,9.745L838.556,471.521L531.05,797.494l-42.893,130.755l-42.893,130.755c-0.977,2.978-2.855,5.463-5.264,7.203
			C437.591,1067.947,434.651,1068.943,431.549,1068.943z M381.52,729.616l26.719,134.075l26.719,134.075l34.827-106.168
			l34.827-106.168c0.331-1.01,0.771-1.976,1.311-2.882s1.178-1.754,1.907-2.527L755.555,517.42l247.724-262.599L692.399,492.218
			L381.52,729.616z"/>
	</g>
</g>
</svg>
