<?xml version="1.0" encoding="UTF-8"?>
<svg xmlns="http://www.w3.org/2000/svg" xmlns:xlink="http://www.w3.org/1999/xlink" viewBox="0 0 64 64" version="1.1">
<g id="surface1">
<path style=" fill:#F9E3AE;" d="M 13 20 L 13 25 L 19 25 L 19 19 C 19 12.371094 24.371094 7 31 7 L 33 7 C 39.628906 7 45 12.371094 45 19 L 45 25 L 51 25 L 51 20 C 51 9.507813 42.492188 1 32 1 C 21.507813 1 13 9.507813 13 20 Z "/>
<path style=" fill:#F9E3AE;" d="M 13 20 L 13 25 L 19 25 L 19 19 C 19 12.371094 24.371094 7 31 7 L 33 7 C 39.628906 7 45 12.371094 45 19 L 45 25 L 51 25 L 51 20 C 51 9.507813 42.492188 1 32 1 C 21.507813 1 13 9.507813 13 20 Z "/>
<path style=" fill:#F5C872;" d="M 29 1 L 35 1 L 35 7 L 29 7 Z "/>
<path style=" fill:#C2CDE7;" d="M 10 25 L 54 25 C 55.65625 25 57 26.34375 57 28 L 57 56 C 57 57.65625 55.65625 59 54 59 L 10 59 C 8.34375 59 7 57.65625 7 56 L 7 28 C 7 26.34375 8.34375 25 10 25 Z "/>
<path style=" fill:#ACB7D0;" d="M 11 40 L 53 40 C 55.210938 40 57 41.789063 57 44 L 57 56 C 57 57.65625 55.65625 59 54 59 L 10 59 C 8.34375 59 7 57.65625 7 56 L 7 44 C 7 41.789063 8.789063 40 11 40 Z "/>
<path style=" fill:#F5C872;" d="M 41 40 C 41 44.96875 36.96875 49 32 49 C 27.03125 49 23 44.96875 23 40 C 23 35.03125 27.03125 31 32 31 C 36.96875 31 41 35.03125 41 40 Z "/>
<path style=" fill:#FFEB9B;" d="M 37 40 C 37 42.761719 34.761719 45 32 45 C 29.238281 45 27 42.761719 27 40 C 27 37.238281 29.238281 35 32 35 C 34.761719 35 37 37.238281 37 40 Z "/>
<path style=" fill:#8D6C9F;" d="M 55 24 L 52 24 L 52 19 C 52 8.507813 43.492188 0 33 0 L 31 0 C 20.507813 0 12 8.507813 12 19 L 12 24 L 9 24 C 7.34375 24 6 25.34375 6 27 L 6 57 C 6 58.65625 7.34375 60 9 60 L 55 60 C 56.65625 60 58 58.65625 58 57 L 58 27 C 58 25.34375 56.65625 24 55 24 Z M 50 19 L 50 24 L 46 24 L 46 19 C 45.996094 12.980469 41.859375 7.75 36 6.359375 L 36 2.28125 C 44.097656 3.730469 49.992188 10.773438 50 19 Z M 31 8 L 33 8 C 39.074219 8 44 12.925781 44 19 L 44 24 L 20 24 L 20 19 C 20 12.925781 24.925781 8 31 8 Z M 33 2 C 33.339844 2 33.671875 2 34 2.050781 L 34 6.050781 C 33.671875 6 33.339844 6 33 6 L 31 6 C 30.660156 6 30.328125 6 30 6.050781 L 30 2.050781 C 30.328125 2.050781 30.660156 2 31 2 Z M 14 19 C 14.007813 10.773438 19.902344 3.730469 28 2.28125 L 28 6.359375 C 22.140625 7.75 18.003906 12.980469 18 19 L 18 24 L 14 24 Z M 56 57 C 56 57.550781 55.550781 58 55 58 L 9 58 C 8.449219 58 8 57.550781 8 57 L 8 27 C 8 26.449219 8.449219 26 9 26 L 55 26 C 55.550781 26 56 26.449219 56 27 Z "/>
<path style=" fill:#8D6C9F;" d="M 32 50 C 37.523438 50 42 45.523438 42 40 C 42 34.476563 37.523438 30 32 30 C 26.476563 30 22 34.476563 22 40 C 22 45.523438 26.476563 50 32 50 Z M 32 32 C 36.417969 32 40 35.582031 40 40 C 40 44.417969 36.417969 48 32 48 C 27.582031 48 24 44.417969 24 40 C 24 35.582031 27.582031 32 32 32 Z "/>
<path style=" fill:#8D6C9F;" d="M 32 36.828125 C 32.550781 36.828125 33 36.382813 33 35.828125 L 33 34 C 33 33.449219 32.550781 33 32 33 C 31.449219 33 31 33.449219 31 34 L 31 35.828125 C 31 36.382813 31.449219 36.828125 32 36.828125 Z "/>
<path style=" fill:#8D6C9F;" d="M 32 46.828125 C 32.550781 46.828125 33 46.382813 33 45.828125 L 33 44 C 33 43.449219 32.550781 43 32 43 C 31.449219 43 31 43.449219 31 44 L 31 45.828125 C 31 46.382813 31.449219 46.828125 32 46.828125 Z "/>
<path style=" fill:#8D6C9F;" d="M 28.828125 40 C 28.828125 39.449219 28.382813 39 27.828125 39 L 26 39 C 25.449219 39 25 39.449219 25 40 C 25 40.550781 25.449219 41 26 41 L 27.828125 41 C 28.382813 41 28.828125 40.550781 28.828125 40 Z "/>
<path style=" fill:#8D6C9F;" d="M 35.171875 40 C 35.171875 40.550781 35.617188 41 36.171875 41 L 38 41 C 38.550781 41 39 40.550781 39 40 C 39 39.449219 38.550781 39 38 39 L 36.171875 39 C 35.617188 39 35.171875 39.449219 35.171875 40 Z "/>
<path style=" fill:#8D6C9F;" d="M 28.410156 37.738281 C 28.808594 38.078125 29.398438 38.058594 29.765625 37.6875 C 30.136719 37.316406 30.160156 36.726563 29.820313 36.328125 L 28.519531 35 C 28.125 34.660156 27.53125 34.683594 27.164063 35.050781 C 26.792969 35.421875 26.769531 36.011719 27.109375 36.410156 Z "/>
<path style=" fill:#8D6C9F;" d="M 35.480469 44.808594 C 35.875 45.148438 36.46875 45.125 36.835938 44.757813 C 37.207031 44.386719 37.230469 43.796875 36.890625 43.398438 L 35.589844 42.101563 C 35.191406 41.761719 34.601563 41.78125 34.234375 42.152344 C 33.863281 42.523438 33.839844 43.113281 34.179688 43.511719 Z "/>
<path style=" fill:#8D6C9F;" d="M 28.410156 42.210938 L 27.109375 43.511719 C 26.824219 43.753906 26.699219 44.136719 26.789063 44.503906 C 26.875 44.867188 27.160156 45.152344 27.527344 45.242188 C 27.890625 45.328125 28.277344 45.207031 28.519531 44.921875 L 29.820313 43.621094 C 30.160156 43.222656 30.136719 42.632813 29.765625 42.261719 C 29.398438 41.894531 28.808594 41.871094 28.410156 42.210938 Z "/>
<path style=" fill:#8D6C9F;" d="M 35 38 C 35.265625 38 35.519531 37.898438 35.710938 37.710938 L 37.011719 36.410156 C 37.398438 36.019531 37.398438 35.382813 37.003906 34.996094 C 36.613281 34.605469 35.980469 34.609375 35.589844 35 L 34.289063 36.300781 C 34.007813 36.585938 33.925781 37.015625 34.082031 37.386719 C 34.234375 37.757813 34.597656 38 35 38 Z "/>
<path style=" fill:#8D6C9F;" d="M 53 54 L 49 54 C 48.449219 54 48 54.449219 48 55 C 48 55.550781 48.449219 56 49 56 L 53 56 C 53.550781 56 54 55.550781 54 55 C 54 54.449219 53.550781 54 53 54 Z "/>
<path style=" fill:#8D6C9F;" d="M 45 54 L 11 54 C 10.449219 54 10 54.449219 10 55 C 10 55.550781 10.449219 56 11 56 L 45 56 C 45.550781 56 46 55.550781 46 55 C 46 54.449219 45.550781 54 45 54 Z "/>
</g>
</svg>
