<?xml version="1.0" encoding="utf-8"?>
<!-- Svg Vector Icons : http://www.onlinewebfonts.com/icon -->
<!DOCTYPE svg PUBLIC "-//W3C//DTD SVG 1.1//EN" "http://www.w3.org/Graphics/SVG/1.1/DTD/svg11.dtd">
<svg version="1.1" xmlns="http://www.w3.org/2000/svg" xmlns:xlink="http://www.w3.org/1999/xlink" x="0px" y="0px" viewBox="0 0 1000 1000" enable-background="new 0 0 1000 1000" xml:space="preserve">
<metadata> Svg Vector Icons : http://www.onlinewebfonts.com/icon </metadata>
<g><path d="M266.2,917.6c-11.9,0-21.2-3.3-28.3-7.2c-17-9.6-27.3-28.3-27.3-50.1V759.9h-37.8C83.1,759.9,10,686.9,10,597V245.2c0-89.9,73.1-162.9,162.9-162.9h40.7c12.9,0,23.3,10.4,23.3,23.3c0,12.8-10.4,23.3-23.3,23.3h-40.7c-64.1,0-116.2,52.2-116.2,116.3V597c0,64.1,52.1,116.3,116.2,116.3h84.4v147.1c0,1.8,0.2,7.5,3.6,9.4c3.6,2.1,15,2.4,34.9-9.7l235.9-146.7h295.5c64.1,0,116.2-52.2,116.2-116.3V245.2c0-64.1-52.1-116.3-116.2-116.3H364.9c-12.9,0-23.3-10.4-23.3-23.3c0-12.9,10.4-23.3,23.3-23.3h462.3c89.8,0,162.9,73,162.9,162.9V597c0,89.9-73.1,162.9-162.9,162.9H544.9L320.2,899.8C298.3,913.1,280.4,917.6,266.2,917.6L266.2,917.6z M802.9,592.3h-124c-12.9,0-23.4-10.4-23.4-23.4c0-12.8,10.4-23.3,23.4-23.3h124c12.9,0,23.3,10.4,23.3,23.3C826.2,581.8,815.8,592.3,802.9,592.3L802.9,592.3z M802.9,445H538.9c-12.9,0-23.3-10.5-23.3-23.3c0-12.9,10.4-23.4,23.3-23.4h264.1c12.9,0,23.3,10.4,23.3,23.4C826.2,434.4,815.8,445,802.9,445L802.9,445z M802.9,307.3H394.7c-12.9,0-23.3-10.4-23.3-23.4c0-12.9,10.4-23.3,23.3-23.3h408.3c12.9,0,23.3,10.4,23.3,23.3C826.2,296.9,815.8,307.3,802.9,307.3L802.9,307.3z"/></g>
</svg>