<?xml version="1.0" encoding="utf-8"?>
<!-- Svg Vector Icons : http://www.onlinewebfonts.com/icon -->
<!DOCTYPE svg PUBLIC "-//W3C//DTD SVG 1.1//EN" "http://www.w3.org/Graphics/SVG/1.1/DTD/svg11.dtd">
<svg version="1.1" xmlns="http://www.w3.org/2000/svg" xmlns:xlink="http://www.w3.org/1999/xlink" x="0px" y="0px" viewBox="0 0 1000 1000" enable-background="new 0 0 1000 1000" xml:space="preserve">
<metadata> Svg Vector Icons : http://www.onlinewebfonts.com/icon </metadata>
<g><g><path d="M963.8,578.5c0-15.3-3.6-30-10.6-43.3c23-17.6,36.8-44.9,36.8-74.5c0-51.8-42.1-93.9-93.9-93.9H642c21.9-56,33.8-123.9,33.8-194.1c0-44.5-36.2-80.8-80.8-80.8s-80.8,36.2-80.8,80.8c0,159.2-111,278.3-276.3,296.4c-1.1,0.1-2.2,0.4-3.3,0.7c-10.9-9.8-25.3-15.8-41-15.8H71.3c-33.8,0-61.3,27.5-61.3,61.3v290.9c0,33.8,27.5,61.3,61.3,61.3h122.5c18.7,0,35.4-8.4,46.7-21.7c39.2,5.7,64.6,18.2,89.1,30.4c31.6,15.6,64.2,31.8,121.5,31.8h366.5c51.8,0,93.8-42.1,93.8-93.9c0-15.3-3.6-30-10.6-43.3c23-17.6,36.8-44.9,36.8-74.5c0-15.3-3.6-30-10.6-43.3C950,635.4,963.8,608.2,963.8,578.5z M901.1,633.5h-26c-8.5,0-15.3,6.9-15.3,15.3c0,8.5,6.9,15.3,15.3,15.3H898c5.9,9.8,9,20.8,9,32.3c0,23.2-12.6,44.2-32.9,55.4h-27.8c-8.5,0-15.3,6.9-15.3,15.3c0,8.5,6.9,15.3,15.3,15.3h25.8c5.7,9.7,8.7,20.5,8.7,31.8c0,34.9-28.4,63.2-63.2,63.2H451.1c-50.2,0-77-13.2-107.9-28.6C319.5,837.1,292.9,824,254,817c0.6-3.5,1-7.1,1-10.8V574.6c0-8.5-6.9-15.3-15.3-15.3s-15.3,6.9-15.3,15.3v231.6c0,16.9-13.7,30.6-30.6,30.6H71.3c-16.9,0-30.6-13.7-30.6-30.6V515.3c0-16.9,13.7-30.6,30.6-30.6h122.5c16.9,0,30.6,13.7,30.6,30.6c0,8.5,6.9,15.3,15.3,15.3s15.3-6.9,15.3-15.3c0-5.9-0.9-11.7-2.5-17.1c85.7-11.7,158.5-48.5,211.1-106.8c52.4-58.2,81.3-135.8,81.3-218.6c0-27.6,22.5-50.1,50.1-50.1s50.1,22.5,50.1,50.1c0,75.2-14.3,147.3-40.2,203c-3.6,7.7-0.3,16.8,7.4,20.3c2.5,1.2,5.1,1.6,7.7,1.4c0.4,0,0.8,0.1,1.2,0.1h274.9c34.9,0,63.2,28.4,63.2,63.2c0,22.6-11.9,43.1-31.3,54.5h-28.7c-8.5,0-15.3,6.9-15.3,15.3c0,8.5,6.9,15.3,15.3,15.3H924c6,9.9,9.2,21,9.2,32.7C933.2,601.4,921,622.2,901.1,633.5z"/><path d="M818.5,633.5h-16.3c-8.5,0-15.3,6.9-15.3,15.3c0,8.5,6.9,15.3,15.3,15.3h16.3c8.5,0,15.3-6.9,15.3-15.3C833.8,640.3,826.9,633.5,818.5,633.5z"/><path d="M846.3,515.2H830c-8.5,0-15.3,6.9-15.3,15.3c0,8.5,6.9,15.3,15.3,15.3h16.3c8.5,0,15.3-6.9,15.3-15.3C861.6,522.1,854.8,515.2,846.3,515.2z"/><path d="M790.6,751.7h-16.3c-8.5,0-15.3,6.9-15.3,15.3c0,8.5,6.9,15.3,15.3,15.3h16.3c8.5,0,15.3-6.9,15.3-15.3C805.9,758.6,799.1,751.7,790.6,751.7z"/><path d="M163.1,515.3c-16.9,0-30.6,13.7-30.6,30.6c0,16.9,13.7,30.6,30.6,30.6s30.6-13.7,30.6-30.6C193.8,529.1,180,515.3,163.1,515.3z"/></g>
    <g/>
    <g/>
    <g/>
    <g/>
    <g/>
    <g/>
    <g/>
    <g/>
    <g/>
    <g/>
    <g/>
    <g/>
    <g/>
    <g/>
    <g/></g>
</svg>