<?xml version="1.0" encoding="utf-8"?>
<!-- Svg Vector Icons : http://www.onlinewebfonts.com/icon -->
<!DOCTYPE svg PUBLIC "-//W3C//DTD SVG 1.1//EN" "http://www.w3.org/Graphics/SVG/1.1/DTD/svg11.dtd">
<svg version="1.1" xmlns="http://www.w3.org/2000/svg" xmlns:xlink="http://www.w3.org/1999/xlink" x="0px" y="0px" viewBox="0 0 1000 1000" enable-background="new 0 0 1000 1000" xml:space="preserve">
<metadata> Svg Vector Icons : http://www.onlinewebfonts.com/icon </metadata>
<g><g><g><path d="M685.7,168.4c4.7,0,9.4-3.1,12.5-6.2c14-20.3,35.9-31.2,59.3-31.2c9.4,0,15.6-6.2,15.6-15.6s-6.2-15.6-15.6-15.6c-34.3,0-65.5,17.2-85.8,45.3c-4.7,7.8-3.1,17.2,4.7,21.8C679.5,168.4,682.6,168.4,685.7,168.4z"/><path d="M130.2,438.4c-7.8-1.6-17.2,4.7-18.7,12.5c-1.6,6.2-1.6,7.8-1.6,12.5v3.1c0,9.4,6.2,15.6,15.6,15.6s15.6-6.2,15.6-15.6c0-1.6,0-3.1,0-4.7s0-1.6,0-4.7C144.2,449.3,139.5,441.5,130.2,438.4z"/><path d="M226.9,352.5c-39,0-73.3,18.7-95.2,51.5c-4.7,7.8-3.1,17.2,4.7,21.8c3.1,1.6,6.2,3.1,9.4,3.1c4.7,0,9.4-3.1,12.5-6.2c15.6-23.4,42.1-37.5,70.2-37.5c9.4,0,15.6-6.2,15.6-15.6C242.5,358.8,234.7,352.5,226.9,352.5z"/><path d="M741.9,503.9c-90.5,0-170.1,49.9-212.2,124.8l-110.8-54.6C436,542.9,446.9,507,446.9,468c0-25-4.7-48.4-10.9-70.2l170.1-73.3c35.9,45.3,90.5,73.3,152.9,73.3c107.7,0,195.1-87.4,195.1-195.1S866.7,7.7,759,7.7C651.4,7.7,564,95,564,202.7c0,23.4,4.7,46.8,12.5,67.1l-168.5,71.8c-39-56.2-104.6-93.6-179.5-93.6C108.3,248,10,346.3,10,466.5s98.3,218.5,218.5,218.5c59.3,0,113.9-23.4,152.9-62.4l126.4,62.4c-4.7,20.3-7.8,40.6-7.8,62.4c0,134.2,109.2,245,245,245c134.2,0,245-109.2,245-245C990,611.6,876.1,503.9,741.9,503.9z M757.5,68.5c73.3,0,132.6,59.3,132.6,132.6c0,73.3-59.3,132.6-132.6,132.6c-73.3,0-132.6-59.3-132.6-132.6C623.3,127.8,684.1,68.5,757.5,68.5z M226.9,624.1c-85.8,0-156.1-70.2-156.1-156.1c0-85.8,70.2-156.1,156.1-156.1S383,382.2,383,468C383,553.8,312.7,624.1,226.9,624.1z M741.9,929.9c-99.9,0-182.6-81.1-182.6-182.6c0-101.4,81.1-182.6,182.6-182.6s182.6,81.1,182.6,182.6C924.5,848.8,841.8,929.9,741.9,929.9z"/><path d="M726.3,603.8c-42.1,0-82.7,21.8-106.1,56.2c-4.7,7.8-3.1,17.2,4.7,21.8c3.1,1.6,6.2,3.1,9.4,3.1c4.7,0,9.4-3.1,12.5-6.2c18.7-26.5,48.4-43.7,81.1-43.7c9.4,0,15.6-6.2,15.6-15.6C741.9,611.6,734.1,603.8,726.3,603.8z"/></g></g>
    <g/>
    <g/>
    <g/>
    <g/>
    <g/>
    <g/>
    <g/>
    <g/>
    <g/>
    <g/>
    <g/>
    <g/>
    <g/>
    <g/>
    <g/></g>
</svg>