<?xml version="1.0" encoding="iso-8859-1"?>
<!-- Generator: Adobe Illustrator 19.0.0, SVG Export Plug-In . SVG Version: 6.00 Build 0)  -->
<svg version="1.1" id="Layer_1" xmlns="http://www.w3.org/2000/svg" xmlns:xlink="http://www.w3.org/1999/xlink" x="0px" y="0px"
	 viewBox="0 0 512 512" style="enable-background:new 0 0 512 512;" xml:space="preserve">
<path style="fill:#FFB655;" d="M387.879,213.521c-13.329-14.629-29.054-27.037-46.545-36.603
	c-6.341-3.468-12.913-6.563-19.689-9.253c-3.389-1.345-6.827-2.589-10.311-3.73c-17.427-5.7-36.025-8.783-55.33-8.783
	c0,0,0,0-0.002,0c-30.889,0-59.968,7.894-85.332,21.765c-17.49,9.567-33.216,21.974-46.545,36.602
	c-28.903,31.721-46.549,73.866-46.549,120.058C77.576,431.959,157.617,512,256,512c0.002,0,0.002,0,0.002,0
	c98.382,0,178.423-80.041,178.423-178.424C434.424,287.386,416.78,245.24,387.879,213.521z"/>
<path style="fill:#C3C3C7;" d="M170.668,176.916v-45.039c0-47.051,38.281-85.332,85.332-85.332
	c47.053,0,85.333,38.281,85.333,85.332v45.039c17.492,9.565,33.216,21.974,46.545,36.603v-81.642C387.879,59.161,328.718,0,256,0
	c-72.716,0-131.877,59.161-131.877,131.877v81.641C137.452,198.89,153.176,186.483,170.668,176.916z"/>
<path style="fill:#EE8700;" d="M256,512c0.002,0,0.002,0,0.002,0V155.152c0,0,0,0-0.002,0c-30.889,0-59.968,7.894-85.332,21.765
	c-17.492,9.567-33.216,21.974-46.545,36.602c-28.902,31.721-46.547,73.868-46.547,120.058C77.576,431.959,157.617,512,256,512z"/>
<polygon style="fill:#E69629;" points="256,155.152 256.002,155.152 256.002,155.152 "/>
<g>
	<path style="fill:#F1CB30;" d="M256.002,155.152L256.002,155.152c19.305,0,37.904,3.083,55.33,8.783
		C293.905,158.234,275.305,155.152,256.002,155.152z"/>
	<path style="fill:#F1CB30;" d="M321.645,167.664c-3.389-1.345-6.827-2.589-10.311-3.73
		C314.816,165.075,318.256,166.319,321.645,167.664z"/>
</g>
<path style="fill:#A9A8AE;" d="M124.123,131.879v81.641c13.329-14.628,29.055-27.037,46.545-36.602v-45.039
	c0-47.053,38.281-85.333,85.332-85.333V0C183.284,0,124.123,59.161,124.123,131.879z"/>
<g>
</g>
<g>
</g>
<g>
</g>
<g>
</g>
<g>
</g>
<g>
</g>
<g>
</g>
<g>
</g>
<g>
</g>
<g>
</g>
<g>
</g>
<g>
</g>
<g>
</g>
<g>
</g>
<g>
</g>
</svg>
